<?xml version="1.0" encoding="UTF-8"?><svg id="Ebene_1" xmlns="http://www.w3.org/2000/svg" viewBox="0 0 274.94 302.44"><defs><style>.cls-1{fill:#fff;}.cls-2{fill:#cc3006;}.cls-3{letter-spacing:.03em;}.cls-4{letter-spacing:.03em;}.cls-5{font-family:BeautyandtheBeast, 'Beauty and the Beast';font-size:44.67px;}.cls-5,.cls-6{fill:#423019;}.cls-7{fill:#ff8b00;}</style></defs><g><g><circle class="cls-1" cx="135.67" cy="86.9" r="73.44" transform="translate(-.1 .16) rotate(-.07)"/><g><path class="cls-7" d="M75.75,129.36c13.31,18.75,35.19,30.98,59.93,30.98s47.34-12.64,60.57-31.91c-14.19-25.27-35.79-41.42-59.99-41.42s-46.33,16.54-60.51,42.35Z"/><path class="cls-6" d="M136.25,87.01c24.2,0,45.8,16.15,59.99,41.42-13.24,19.27-35.43,31.91-60.57,31.91s-46.62-12.23-59.93-30.98c14.18-25.81,36.01-42.35,60.51-42.35m0-4.67c-12.97,0-25.37,4.16-36.84,12.37-10.73,7.68-20.33,18.88-27.76,32.41l-1.41,2.57,1.7,2.39c7.08,9.97,16.52,18.25,27.3,23.95,11.15,5.89,23.75,9,36.43,9,25.74,0,49.83-12.69,64.43-33.94l1.65-2.4-1.42-2.54c-15.63-27.84-38.98-43.8-64.06-43.8h0Z"/></g></g><g><path class="cls-6" d="M135.67,165.3c-34.1,0-64.07-21.77-74.59-54.18-.4-1.23,.27-2.55,1.5-2.94,1.23-.4,2.55,.27,2.95,1.5,9.89,30.47,38.08,50.95,70.14,50.95,40.65,0,73.73-33.08,73.73-73.73S176.33,13.17,135.67,13.17,61.94,46.25,61.94,86.9c0,1.29-1.05,2.34-2.34,2.34s-2.34-1.05-2.34-2.34c0-43.23,35.17-78.4,78.41-78.4s78.4,35.17,78.4,78.4-35.17,78.4-78.4,78.4Z"/><path class="cls-6" d="M64.22,101.83c0,1.79-1.45,3.24-3.24,3.24s-3.24-1.45-3.24-3.24,1.45-3.24,3.24-3.24,3.24,1.45,3.24,3.24Z"/></g><path class="cls-1" d="M135.67,160.34c8.07,0,15.83-1.31,23.09-3.71-5.18-8.41-13.59-13.88-23.09-13.88s-17.91,5.47-23.09,13.88c7.26,2.4,15.02,3.71,23.09,3.71Z"/><g><g><path class="cls-7" d="M103.19,152.76c-1.52,5.98,10.16,13.51,16.63,7.19,6.48-6.32,2.81-16.94-10.02-20.13-12.83-3.19-16.05,7.38-16.05,7.38,0,0,4.33,3.25,9.43,5.57Z"/><path class="cls-6" d="M105.23,139.22c1.37,0,2.89,.18,4.57,.6,12.83,3.19,16.5,13.81,10.02,20.13-1.74,1.7-3.85,2.39-5.98,2.39-5.81,0-11.76-5.2-10.65-9.58-5.11-2.32-9.43-5.57-9.43-5.57,0,0,2.42-7.98,11.48-7.98m0-4.67c-9.9,0-14.76,7.39-15.95,11.29l-.95,3.13,2.62,1.97c.16,.12,3.37,2.52,7.61,4.76,.33,1.7,1.12,3.39,2.35,4.96,3.01,3.87,8.09,6.37,12.94,6.37,3.55,0,6.75-1.29,9.24-3.73,3.91-3.82,5.42-9.14,4.03-14.25-1.77-6.54-7.82-11.68-16.19-13.76-1.97-.49-3.89-.74-5.7-.74h0Z"/></g><g><path class="cls-7" d="M168.15,152.76c1.52,5.98-10.16,13.51-16.63,7.19-6.48-6.32-2.81-16.94,10.02-20.13,12.83-3.19,16.05,7.38,16.05,7.38,0,0-4.33,3.25-9.44,5.57Z"/><path class="cls-6" d="M166.11,139.22c9.05,0,11.48,7.98,11.48,7.98,0,0-4.33,3.25-9.44,5.57,1.11,4.38-4.84,9.58-10.65,9.58-2.13,0-4.24-.7-5.98-2.39-6.48-6.32-2.81-16.94,10.02-20.13,1.68-.42,3.2-.6,4.57-.6m0-4.67h0c-1.81,0-3.73,.25-5.7,.74-8.37,2.08-14.42,7.23-16.19,13.76-1.38,5.11,.12,10.43,4.03,14.25,2.5,2.44,5.69,3.72,9.24,3.72,4.85,0,9.93-2.5,12.94-6.37,1.22-1.57,2.01-3.26,2.34-4.96,4.24-2.24,7.45-4.64,7.61-4.76l2.62-1.97-.95-3.13c-1.19-3.91-6.05-11.29-15.95-11.29h0Z"/></g></g><g><path class="cls-6" d="M140.71,134.24c3.11-.89,5.73-2.67,7.64-5.23,1.75-1.83,3.04-4.03,4.65-6.78,1.58-2.7,3.54-6.05,6.59-10.06l.05-.07c.71-.93,1.45-1.86,2.21-2.78l.04-.04,.03-.03c.38-.45,.76-.9,1.15-1.35l.16-.19c.45-.52,.88-1.01,1.32-1.49,15.3-16.91,38.36-25.63,38.59-25.72l3.95-1.47-1.05-4.08c-2.32-8.98-5.8-17.06-10.35-24.05,8.14-22.71,3.83-45.42,3.63-46.4l-.88-4.49-4.51,.79c-16.97,2.97-31.36,13.72-39.43,20.98-8.65-2.27-15.54-2.54-18.26-2.54-.3,0-.53,0-.68,0-.09,0-.2,0-.35,0-2.17,0-9.52,.21-18.81,2.75-8.14-7.19-22.64-17.84-39.66-20.65l-4.52-.75-.84,4.5c-.19,.99-4.29,23.75,4.07,46.39-4.49,7.03-7.9,15.14-10.13,24.13l-1.02,4.1,3.97,1.43c.23,.08,23.37,8.59,38.82,25.36,.43,.47,.86,.95,1.33,1.47l.11,.13,.07,.08c.39,.44,.76,.87,1.12,1.29l.08,.09,.03,.04c.76,.89,1.5,1.81,2.21,2.72l.09,.11c3.06,3.96,5.06,7.29,6.66,9.97,1.63,2.73,2.94,4.92,4.71,6.74,1.92,2.53,4.55,4.28,7.65,5.15,0,0,4.33,1.27,9.58-.03Zm-4.65-110.34h0Z"/><g><g><path class="cls-7" d="M190.45,51.51c8.93-22.45,4.27-46.11,4.27-46.11-17.27,3.02-31.86,14.85-38.98,21.58-10.77-3.22-19.28-3.09-20.17-3.06-.9-.02-9.52-.07-20.38,3.29-7.16-6.65-21.89-18.39-39.22-21.26,0,0-4.44,23.72,4.71,46.09-4.54,6.58-8.34,14.69-10.83,24.69,0,0,24.22,8.73,40.68,26.59,16.28,17.67,12.43,25.51,25.19,25.61h0c.07,0,.13,0,.2,0,.07,0,.13,0,.2,0h0c12.75-.23,8.83-8.03,24.95-25.85,16.29-18.01,40.43-26.96,40.43-26.96-2.58-9.99-6.45-18.07-11.05-24.61Z"/><g><path class="cls-1" d="M113.69,63.73c-16.61-12.92-35.65,3.31-43.76,12.69-.03,.1-.05,.2-.08,.3,0,0,24.22,8.73,40.68,26.59,11.86,12.87,13.04,20.52,17.74,23.77-6.72-7.82,1.96-50.49-14.57-63.35Z"/><path class="cls-1" d="M157.53,63.53c16.49-13.08,35.68,2.98,43.88,12.29,.03,.1,.06,.2,.08,.3,0,0-24.13,8.95-40.43,26.96-11.74,12.98-12.85,20.64-17.51,23.93,6.64-7.88-2.42-50.47,13.98-63.48Z"/></g><g><path class="cls-6" d="M117.81,77.62c.01,2.97-2.38,5.39-5.36,5.41-2.97,.01-5.39-2.38-5.41-5.36-.01-2.97,2.38-5.39,5.36-5.41,2.97-.01,5.39,2.39,5.41,5.36Z"/><path class="cls-1" d="M116.03,75.76c0,.93-.75,1.7-1.69,1.7-.93,0-1.7-.75-1.7-1.69,0-.93,.75-1.7,1.68-1.7,.93,0,1.7,.75,1.7,1.69Z"/><g><path class="cls-6" d="M164.3,77.41c.01,2.97-2.38,5.39-5.36,5.41-2.97,.01-5.39-2.38-5.4-5.36-.01-2.97,2.38-5.39,5.36-5.41,2.97-.01,5.39,2.38,5.41,5.36Z"/><path class="cls-1" d="M162.52,75.54c0,.94-.75,1.7-1.69,1.7-.94,0-1.7-.75-1.7-1.68,0-.93,.75-1.7,1.69-1.7,.93,0,1.7,.75,1.7,1.68Z"/></g></g><path class="cls-6" d="M145.66,118.95c-1.95-2.12-8.57-2.07-9.8-2.04-1.23-.02-7.85,0-9.78,2.13-2.12,2.34,.42,11.16,9.73,11.17h0s.08,0,.11,0,.07,0,.11,0h0c9.31-.1,11.76-8.94,9.62-11.27Z"/></g><path class="cls-1" d="M143.81,120.64c-.07,1.04-1.65,1.77-3.53,1.64-1.88-.13-3.35-1.08-3.27-2.11,.07-1.04,1.65-1.77,3.53-1.64,1.88,.13,3.35,1.08,3.27,2.11Z"/></g><path class="cls-2" d="M107.06,30.26c-6.19-5.04-14.91-10.78-23.91-12.27,0,0-.81,13.26,3.14,27.05,6.46-6.97,13.78-11.64,20.77-14.77Z"/><path class="cls-2" d="M184.69,44.46c3.68-13.89,2.52-27.26,2.52-27.26-8.98,1.57-17.52,7.47-23.55,12.65,7.04,3.05,14.46,7.66,21.03,14.61Z"/></g></g><text class="cls-5" transform="translate(34.06 216.72)"><tspan x="0" y="0">ler</tspan><tspan class="cls-3" x="60.57" y="0">n</tspan><tspan x="85.36" y="0">en mal</tspan><tspan x="34.42" y="53.6">a</tspan><tspan class="cls-4" x="57.65" y="53.6">n</tspan><tspan x="82.17" y="53.6">ders</tspan></text></svg>